<mxfile host="app.diagrams.net" modified="2023-10-03T07:28:57.726Z" agent="Mozilla/5.0 (Windows NT 10.0; Win64; x64) AppleWebKit/537.36 (KHTML, like Gecko) Chrome/117.0.0.0 Safari/537.36" etag="0eJY1SwU3v3OGsopmMfO" version="22.0.1" type="github">
  <diagram name="Page-1" id="JOQQv00h7EulbOmYIC6c">
    <mxGraphModel dx="2625" dy="2463" grid="1" gridSize="10" guides="1" tooltips="1" connect="1" arrows="1" fold="1" page="1" pageScale="1" pageWidth="850" pageHeight="1100" math="0" shadow="0">
      <root>
        <mxCell id="0" />
        <mxCell id="1" parent="0" />
        <mxCell id="HbB4vUiA8MKJQSu4vm97-10" value="&lt;b&gt;&lt;font style=&quot;font-size: 18px;&quot;&gt;Youtube video Upload / Playback System design&lt;/font&gt;&lt;/b&gt;" style="text;html=1;align=center;verticalAlign=middle;resizable=0;points=[];autosize=1;strokeColor=none;fillColor=none;" vertex="1" parent="1">
          <mxGeometry x="180" width="440" height="40" as="geometry" />
        </mxCell>
        <mxCell id="HbB4vUiA8MKJQSu4vm97-13" value="&lt;b&gt;&lt;font style=&quot;font-size: 16px;&quot;&gt;Uploading :&amp;nbsp;&lt;/font&gt;&lt;/b&gt;" style="text;html=1;align=center;verticalAlign=middle;resizable=0;points=[];autosize=1;strokeColor=none;fillColor=none;" vertex="1" parent="1">
          <mxGeometry x="40" y="40" width="120" height="30" as="geometry" />
        </mxCell>
        <mxCell id="HbB4vUiA8MKJQSu4vm97-14" value="average of 1 upload for every 100 views&lt;br&gt;for a scale of 5 billion videos it will be 50 million uploads&lt;br&gt;points to be taken consideration :&amp;nbsp;&lt;br&gt;-&amp;gt; huge latency&lt;br&gt;-&amp;gt; more storage&lt;br&gt;-&amp;gt; video transcoding&lt;br&gt;-&amp;gt; verification and editing" style="text;html=1;align=left;verticalAlign=middle;resizable=0;points=[];autosize=1;strokeColor=none;fillColor=none;" vertex="1" parent="1">
          <mxGeometry x="40" y="78" width="320" height="110" as="geometry" />
        </mxCell>
        <mxCell id="HbB4vUiA8MKJQSu4vm97-40" style="edgeStyle=orthogonalEdgeStyle;rounded=0;orthogonalLoop=1;jettySize=auto;html=1;exitX=0.5;exitY=1;exitDx=0;exitDy=0;entryX=0.5;entryY=0;entryDx=0;entryDy=0;" edge="1" parent="1" source="HbB4vUiA8MKJQSu4vm97-33" target="HbB4vUiA8MKJQSu4vm97-38">
          <mxGeometry relative="1" as="geometry" />
        </mxCell>
        <mxCell id="HbB4vUiA8MKJQSu4vm97-33" value="" style="shape=actor;whiteSpace=wrap;html=1;" vertex="1" parent="1">
          <mxGeometry x="470" y="43" width="40" height="47" as="geometry" />
        </mxCell>
        <mxCell id="HbB4vUiA8MKJQSu4vm97-42" style="edgeStyle=orthogonalEdgeStyle;rounded=0;orthogonalLoop=1;jettySize=auto;html=1;entryX=0.5;entryY=1;entryDx=0;entryDy=0;" edge="1" parent="1" source="HbB4vUiA8MKJQSu4vm97-37" target="HbB4vUiA8MKJQSu4vm97-38">
          <mxGeometry relative="1" as="geometry" />
        </mxCell>
        <mxCell id="HbB4vUiA8MKJQSu4vm97-61" style="edgeStyle=orthogonalEdgeStyle;rounded=0;orthogonalLoop=1;jettySize=auto;html=1;" edge="1" parent="1" target="HbB4vUiA8MKJQSu4vm97-48">
          <mxGeometry relative="1" as="geometry">
            <mxPoint x="410" y="280" as="sourcePoint" />
            <Array as="points">
              <mxPoint x="410" y="460" />
              <mxPoint x="410" y="479" />
            </Array>
          </mxGeometry>
        </mxCell>
        <mxCell id="HbB4vUiA8MKJQSu4vm97-37" value="Amazon DynamoDB" style="sketch=0;outlineConnect=0;fontColor=#232F3E;gradientColor=none;strokeColor=#ffffff;fillColor=#232F3E;dashed=0;verticalLabelPosition=middle;verticalAlign=bottom;align=center;html=1;whiteSpace=wrap;fontSize=10;fontStyle=1;spacing=3;shape=mxgraph.aws4.productIcon;prIcon=mxgraph.aws4.dynamodb;" vertex="1" parent="1">
          <mxGeometry x="405" y="211.5" width="65" height="60" as="geometry" />
        </mxCell>
        <mxCell id="HbB4vUiA8MKJQSu4vm97-41" style="edgeStyle=orthogonalEdgeStyle;rounded=0;orthogonalLoop=1;jettySize=auto;html=1;" edge="1" parent="1" source="HbB4vUiA8MKJQSu4vm97-38">
          <mxGeometry relative="1" as="geometry">
            <mxPoint x="440" y="210" as="targetPoint" />
          </mxGeometry>
        </mxCell>
        <mxCell id="HbB4vUiA8MKJQSu4vm97-44" style="edgeStyle=orthogonalEdgeStyle;rounded=0;orthogonalLoop=1;jettySize=auto;html=1;" edge="1" parent="1" source="HbB4vUiA8MKJQSu4vm97-38" target="HbB4vUiA8MKJQSu4vm97-39">
          <mxGeometry relative="1" as="geometry" />
        </mxCell>
        <mxCell id="HbB4vUiA8MKJQSu4vm97-38" value="" style="editableCssRules=.*;html=1;shape=image;verticalLabelPosition=bottom;labelBackgroundColor=#ffffff;verticalAlign=top;aspect=fixed;imageAspect=0;image=data:image/svg+xml,PHN2ZyB4bWxucz0iaHR0cDovL3d3dy53My5vcmcvMjAwMC9zdmciIHhtbG5zOnY9Imh0dHBzOi8vdmVjdGEuaW8vbmFubyIgd2lkdGg9IjIwIiBoZWlnaHQ9IjIwIiB2aWV3Qm94PSIwIDAgMjAgMjAiPiYjeGE7CTxzdHlsZSB0eXBlPSJ0ZXh0L2NzcyI+JiN4YTsJLnN0MHtmaWxsOiM0Mjg1ZjQ7fSYjeGE7CS5zdDF7ZmlsbDojNjY5ZGY2O30mI3hhOwkuc3Qye2ZpbGw6I2FlY2JmYTt9JiN4YTsJPC9zdHlsZT4mI3hhOwk8cGF0aCBjbGFzcz0ic3QxIiBkPSJNMTYgMTBoMnY0aC0yem0tNyAwaDJ2NEg5em0tNyAwaDJ2NEgyeiIvPiYjeGE7CTxwYXRoIGNsYXNzPSJzdDAiIGQ9Ik05IDVoMnY0SDl6Ii8+JiN4YTsJPHBhdGggY2xhc3M9InN0MSIgZD0iTTIgOWgxNnYySDJ6Ii8+JiN4YTsJPHBhdGggY2xhc3M9InN0MiIgZD0iTTQgMGgxMnY1SDR6Ii8+JiN4YTsJPHBhdGggY2xhc3M9InN0MSIgZD0iTTEwIDBoNnY1aC02eiIvPiYjeGE7CTxwYXRoIGNsYXNzPSJzdDIiIGQ9Ik0xNCAxNGg2djZoLTZ6TTAgMTRoNnY2SDB6Ii8+JiN4YTsJPHBhdGggY2xhc3M9InN0MSIgZD0iTTMgMTRoM3Y2SDN6Ii8+JiN4YTsJPHBhdGggY2xhc3M9InN0MiIgZD0iTTcgMTRoNnY2SDd6Ii8+JiN4YTsJPHBhdGggY2xhc3M9InN0MSIgZD0iTTEwIDE0aDN2NmgtM3ptNyAwaDN2NmgtM3oiLz4mI3hhOzwvc3ZnPg==;" vertex="1" parent="1">
          <mxGeometry x="470" y="120" width="40" height="40" as="geometry" />
        </mxCell>
        <mxCell id="HbB4vUiA8MKJQSu4vm97-43" style="edgeStyle=orthogonalEdgeStyle;rounded=0;orthogonalLoop=1;jettySize=auto;html=1;exitX=0.5;exitY=0;exitDx=0;exitDy=0;exitPerimeter=0;" edge="1" parent="1" source="HbB4vUiA8MKJQSu4vm97-39">
          <mxGeometry relative="1" as="geometry">
            <mxPoint x="490" y="160" as="targetPoint" />
          </mxGeometry>
        </mxCell>
        <mxCell id="HbB4vUiA8MKJQSu4vm97-39" value="" style="outlineConnect=0;dashed=0;verticalLabelPosition=bottom;verticalAlign=top;align=center;html=1;shape=mxgraph.aws3.bucket_with_objects;fillColor=#E05243;gradientColor=none;" vertex="1" parent="1">
          <mxGeometry x="520" y="210" width="60" height="61.5" as="geometry" />
        </mxCell>
        <mxCell id="HbB4vUiA8MKJQSu4vm97-45" value="@AlwaysHaze" style="text;html=1;align=center;verticalAlign=middle;resizable=0;points=[];autosize=1;strokeColor=none;fillColor=none;" vertex="1" parent="1">
          <mxGeometry x="690" y="-2" width="100" height="30" as="geometry" />
        </mxCell>
        <mxCell id="HbB4vUiA8MKJQSu4vm97-56" style="edgeStyle=orthogonalEdgeStyle;rounded=0;orthogonalLoop=1;jettySize=auto;html=1;" edge="1" parent="1" source="HbB4vUiA8MKJQSu4vm97-46" target="HbB4vUiA8MKJQSu4vm97-55">
          <mxGeometry relative="1" as="geometry" />
        </mxCell>
        <mxCell id="HbB4vUiA8MKJQSu4vm97-46" value="" style="sketch=0;aspect=fixed;pointerEvents=1;shadow=0;dashed=0;html=1;strokeColor=none;labelPosition=center;verticalLabelPosition=bottom;verticalAlign=top;align=center;fillColor=#00188D;shape=mxgraph.azure.queue_generic" vertex="1" parent="1">
          <mxGeometry x="502.5" y="330" width="95" height="28.5" as="geometry" />
        </mxCell>
        <mxCell id="HbB4vUiA8MKJQSu4vm97-47" style="edgeStyle=orthogonalEdgeStyle;rounded=0;orthogonalLoop=1;jettySize=auto;html=1;exitX=0.5;exitY=1;exitDx=0;exitDy=0;exitPerimeter=0;entryX=0.5;entryY=0;entryDx=0;entryDy=0;entryPerimeter=0;" edge="1" parent="1" source="HbB4vUiA8MKJQSu4vm97-39" target="HbB4vUiA8MKJQSu4vm97-46">
          <mxGeometry relative="1" as="geometry" />
        </mxCell>
        <mxCell id="HbB4vUiA8MKJQSu4vm97-63" style="edgeStyle=orthogonalEdgeStyle;rounded=0;orthogonalLoop=1;jettySize=auto;html=1;" edge="1" parent="1" source="HbB4vUiA8MKJQSu4vm97-48">
          <mxGeometry relative="1" as="geometry">
            <mxPoint x="410" y="280" as="targetPoint" />
          </mxGeometry>
        </mxCell>
        <mxCell id="HbB4vUiA8MKJQSu4vm97-48" value="" style="sketch=0;outlineConnect=0;fontColor=#232F3E;gradientColor=none;fillColor=#7AA116;strokeColor=none;dashed=0;verticalLabelPosition=bottom;verticalAlign=top;align=center;html=1;fontSize=12;fontStyle=0;aspect=fixed;pointerEvents=1;shape=mxgraph.aws4.bucket_with_objects;" vertex="1" parent="1">
          <mxGeometry x="650" y="440" width="75" height="78" as="geometry" />
        </mxCell>
        <mxCell id="HbB4vUiA8MKJQSu4vm97-50" value="user" style="text;html=1;align=center;verticalAlign=middle;resizable=0;points=[];autosize=1;strokeColor=none;fillColor=none;" vertex="1" parent="1">
          <mxGeometry x="520" y="60" width="50" height="30" as="geometry" />
        </mxCell>
        <mxCell id="HbB4vUiA8MKJQSu4vm97-51" value="/post" style="text;html=1;align=center;verticalAlign=middle;resizable=0;points=[];autosize=1;strokeColor=none;fillColor=none;" vertex="1" parent="1">
          <mxGeometry x="440" y="90" width="50" height="30" as="geometry" />
        </mxCell>
        <mxCell id="HbB4vUiA8MKJQSu4vm97-52" value="storage for metadata&amp;nbsp;&lt;br&gt;eg : descrip , title , tags etc..." style="text;html=1;align=center;verticalAlign=middle;resizable=0;points=[];autosize=1;strokeColor=none;fillColor=none;" vertex="1" parent="1">
          <mxGeometry x="225" y="221.5" width="180" height="40" as="geometry" />
        </mxCell>
        <mxCell id="HbB4vUiA8MKJQSu4vm97-53" value="object storage for raw video&lt;br&gt;" style="text;html=1;align=center;verticalAlign=middle;resizable=0;points=[];autosize=1;strokeColor=none;fillColor=none;" vertex="1" parent="1">
          <mxGeometry x="580" y="221.5" width="170" height="30" as="geometry" />
        </mxCell>
        <mxCell id="HbB4vUiA8MKJQSu4vm97-55" value="" style="sketch=0;outlineConnect=0;fontColor=#232F3E;gradientColor=none;fillColor=#DD344C;strokeColor=none;dashed=0;verticalLabelPosition=bottom;verticalAlign=top;align=center;html=1;fontSize=12;fontStyle=0;aspect=fixed;pointerEvents=1;shape=mxgraph.aws4.fleet_management;" vertex="1" parent="1">
          <mxGeometry x="650" y="305" width="78" height="78" as="geometry" />
        </mxCell>
        <mxCell id="HbB4vUiA8MKJQSu4vm97-57" style="edgeStyle=orthogonalEdgeStyle;rounded=0;orthogonalLoop=1;jettySize=auto;html=1;entryX=0.533;entryY=0.033;entryDx=0;entryDy=0;entryPerimeter=0;" edge="1" parent="1" source="HbB4vUiA8MKJQSu4vm97-55" target="HbB4vUiA8MKJQSu4vm97-48">
          <mxGeometry relative="1" as="geometry" />
        </mxCell>
        <mxCell id="HbB4vUiA8MKJQSu4vm97-58" value="message queue for video transcoding&amp;nbsp;" style="text;html=1;align=center;verticalAlign=middle;resizable=0;points=[];autosize=1;strokeColor=none;fillColor=none;" vertex="1" parent="1">
          <mxGeometry x="425" y="368" width="230" height="30" as="geometry" />
        </mxCell>
        <mxCell id="HbB4vUiA8MKJQSu4vm97-59" value="transcoding fleet" style="text;html=1;align=center;verticalAlign=middle;resizable=0;points=[];autosize=1;strokeColor=none;fillColor=none;" vertex="1" parent="1">
          <mxGeometry x="728" y="330" width="110" height="30" as="geometry" />
        </mxCell>
        <mxCell id="HbB4vUiA8MKJQSu4vm97-60" value="transcoded video&lt;br&gt;" style="text;html=1;align=center;verticalAlign=middle;resizable=0;points=[];autosize=1;strokeColor=none;fillColor=none;" vertex="1" parent="1">
          <mxGeometry x="725" y="450" width="110" height="30" as="geometry" />
        </mxCell>
        <mxCell id="HbB4vUiA8MKJQSu4vm97-64" value="Where to host the meta data" style="whiteSpace=wrap;html=1;aspect=fixed;" vertex="1" parent="1">
          <mxGeometry x="385" y="425" width="80" height="80" as="geometry" />
        </mxCell>
        <mxCell id="HbB4vUiA8MKJQSu4vm97-66" style="edgeStyle=orthogonalEdgeStyle;rounded=0;orthogonalLoop=1;jettySize=auto;html=1;exitX=0;exitY=0.5;exitDx=0;exitDy=0;" edge="1" parent="1" source="HbB4vUiA8MKJQSu4vm97-64" target="HbB4vUiA8MKJQSu4vm97-65">
          <mxGeometry relative="1" as="geometry">
            <Array as="points">
              <mxPoint x="320" y="465" />
            </Array>
          </mxGeometry>
        </mxCell>
        <mxCell id="HbB4vUiA8MKJQSu4vm97-65" value="" style="image;aspect=fixed;html=1;points=[];align=center;fontSize=12;image=img/lib/azure2/app_services/CDN_Profiles.svg;" vertex="1" parent="1">
          <mxGeometry x="281" y="358" width="68" height="40" as="geometry" />
        </mxCell>
        <mxCell id="HbB4vUiA8MKJQSu4vm97-68" value="cdn for content delivery" style="text;html=1;align=center;verticalAlign=middle;resizable=0;points=[];autosize=1;strokeColor=none;fillColor=none;" vertex="1" parent="1">
          <mxGeometry x="250" y="328.5" width="150" height="30" as="geometry" />
        </mxCell>
        <mxCell id="HbB4vUiA8MKJQSu4vm97-69" value="&lt;font style=&quot;font-size: 16px;&quot;&gt;&lt;b&gt;Video playback :&lt;/b&gt;&lt;/font&gt;" style="text;html=1;align=center;verticalAlign=middle;resizable=0;points=[];autosize=1;strokeColor=none;fillColor=none;" vertex="1" parent="1">
          <mxGeometry x="35" y="598" width="150" height="30" as="geometry" />
        </mxCell>
        <mxCell id="HbB4vUiA8MKJQSu4vm97-70" value="There are many videos to view&amp;nbsp;&lt;br&gt;the data fetching might be challenging.&lt;br&gt;Points to be taken care:&amp;nbsp;&lt;br&gt;-&amp;gt; videos based on interests&lt;br&gt;-&amp;gt; most popular , etc...&lt;br&gt;-&amp;gt; we cannot depend on cdn&amp;nbsp;&lt;br&gt;for every video as they are pretty costly" style="text;html=1;align=left;verticalAlign=middle;resizable=0;points=[];autosize=1;strokeColor=none;fillColor=none;" vertex="1" parent="1">
          <mxGeometry x="20" y="628" width="230" height="110" as="geometry" />
        </mxCell>
        <mxCell id="HbB4vUiA8MKJQSu4vm97-71" value="" style="shape=actor;whiteSpace=wrap;html=1;" vertex="1" parent="1">
          <mxGeometry x="490" y="568" width="40" height="52" as="geometry" />
        </mxCell>
        <mxCell id="HbB4vUiA8MKJQSu4vm97-77" value="" style="sketch=0;outlineConnect=0;fontColor=#232F3E;gradientColor=none;strokeColor=#ffffff;fillColor=#232F3E;dashed=0;verticalLabelPosition=middle;verticalAlign=bottom;align=center;html=1;whiteSpace=wrap;fontSize=10;fontStyle=1;spacing=3;shape=mxgraph.aws4.productIcon;prIcon=mxgraph.aws4.dynamodb;" vertex="1" parent="1">
          <mxGeometry x="480" y="698" width="65" height="40" as="geometry" />
        </mxCell>
        <mxCell id="HbB4vUiA8MKJQSu4vm97-78" value="" style="shape=image;html=1;verticalAlign=top;verticalLabelPosition=bottom;labelBackgroundColor=#ffffff;imageAspect=0;aspect=fixed;image=https://cdn4.iconfinder.com/data/icons/developer-set-3/128/arrowupdown-128.png" vertex="1" parent="1">
          <mxGeometry x="490" y="640" width="40" height="40" as="geometry" />
        </mxCell>
        <mxCell id="HbB4vUiA8MKJQSu4vm97-79" value="Video metadata stored in nosql" style="text;html=1;align=center;verticalAlign=middle;resizable=0;points=[];autosize=1;strokeColor=none;fillColor=none;" vertex="1" parent="1">
          <mxGeometry x="417.5" y="770" width="190" height="30" as="geometry" />
        </mxCell>
        <mxCell id="HbB4vUiA8MKJQSu4vm97-80" value="req video info,&lt;br&gt;returns video metadata" style="text;html=1;align=center;verticalAlign=middle;resizable=0;points=[];autosize=1;strokeColor=none;fillColor=none;" vertex="1" parent="1">
          <mxGeometry x="340" y="640" width="150" height="40" as="geometry" />
        </mxCell>
        <mxCell id="HbB4vUiA8MKJQSu4vm97-81" value="" style="sketch=0;outlineConnect=0;fontColor=#232F3E;gradientColor=none;fillColor=#7AA116;strokeColor=none;dashed=0;verticalLabelPosition=bottom;verticalAlign=top;align=center;html=1;fontSize=12;fontStyle=0;aspect=fixed;pointerEvents=1;shape=mxgraph.aws4.bucket_with_objects;" vertex="1" parent="1">
          <mxGeometry x="690" y="722" width="75" height="78" as="geometry" />
        </mxCell>
        <mxCell id="HbB4vUiA8MKJQSu4vm97-82" value="" style="image;aspect=fixed;html=1;points=[];align=center;fontSize=12;image=img/lib/azure2/app_services/CDN_Profiles.svg;" vertex="1" parent="1">
          <mxGeometry x="631" y="640" width="68" height="40" as="geometry" />
        </mxCell>
        <mxCell id="HbB4vUiA8MKJQSu4vm97-83" value="" style="image;aspect=fixed;html=1;points=[];align=center;fontSize=12;image=img/lib/azure2/app_services/CDN_Profiles.svg;" vertex="1" parent="1">
          <mxGeometry x="740" y="640" width="68" height="40" as="geometry" />
        </mxCell>
        <mxCell id="HbB4vUiA8MKJQSu4vm97-84" value="local cdn where only&lt;br&gt;&amp;nbsp;particular &lt;br&gt;region videos &lt;br&gt;are watched" style="text;html=1;align=center;verticalAlign=middle;resizable=0;points=[];autosize=1;strokeColor=none;fillColor=none;" vertex="1" parent="1">
          <mxGeometry x="715" y="570" width="130" height="70" as="geometry" />
        </mxCell>
        <mxCell id="HbB4vUiA8MKJQSu4vm97-85" value="cdn where videos&amp;nbsp;&lt;br&gt;are popular in all regions&lt;br&gt;" style="text;html=1;align=center;verticalAlign=middle;resizable=0;points=[];autosize=1;strokeColor=none;fillColor=none;" vertex="1" parent="1">
          <mxGeometry x="590" y="593" width="150" height="40" as="geometry" />
        </mxCell>
        <mxCell id="HbB4vUiA8MKJQSu4vm97-89" style="edgeStyle=orthogonalEdgeStyle;rounded=0;orthogonalLoop=1;jettySize=auto;html=1;exitX=0.5;exitY=1;exitDx=0;exitDy=0;" edge="1" parent="1" source="HbB4vUiA8MKJQSu4vm97-87" target="HbB4vUiA8MKJQSu4vm97-81">
          <mxGeometry relative="1" as="geometry" />
        </mxCell>
        <mxCell id="HbB4vUiA8MKJQSu4vm97-87" value="" style="rounded=0;whiteSpace=wrap;html=1;fillColor=none;" vertex="1" parent="1">
          <mxGeometry x="590" y="560" width="250" height="140" as="geometry" />
        </mxCell>
        <mxCell id="HbB4vUiA8MKJQSu4vm97-88" style="edgeStyle=orthogonalEdgeStyle;rounded=0;orthogonalLoop=1;jettySize=auto;html=1;exitX=1;exitY=0.75;exitDx=0;exitDy=0;entryX=-0.007;entryY=0.533;entryDx=0;entryDy=0;entryPerimeter=0;" edge="1" parent="1" source="HbB4vUiA8MKJQSu4vm97-71" target="HbB4vUiA8MKJQSu4vm97-87">
          <mxGeometry relative="1" as="geometry" />
        </mxCell>
        <mxCell id="HbB4vUiA8MKJQSu4vm97-90" value="Transcoded video storage" style="text;html=1;align=center;verticalAlign=middle;resizable=0;points=[];autosize=1;strokeColor=none;fillColor=none;" vertex="1" parent="1">
          <mxGeometry x="650" y="800" width="160" height="30" as="geometry" />
        </mxCell>
      </root>
    </mxGraphModel>
  </diagram>
</mxfile>
